<?xml version="1.0" encoding="UTF-8"?>
<svg version="1.1" xmlns="http://www.w3.org/2000/svg" width="512" height="512">
<path d="M0 0 C1.4178507 -0.00489206 2.8356974 -0.01108332 4.25353736 -0.01845789 C8.14061733 -0.03484084 12.02749427 -0.03254286 15.91459668 -0.02708292 C20.11036671 -0.02441067 24.30608287 -0.03894822 28.50183105 -0.05117798 C36.71857504 -0.07222628 44.93524845 -0.07677316 53.1520162 -0.07499009 C59.8317879 -0.07368211 66.5115376 -0.07748847 73.19130516 -0.08491516 C75.11593411 -0.08701438 77.04056307 -0.08911198 78.96519202 -0.09120798 C79.92316011 -0.09225151 80.88112821 -0.09329504 81.86812564 -0.09437019 C99.9837288 -0.11327031 118.09929146 -0.11222312 136.2149004 -0.10540086 C152.78147064 -0.09982617 169.34788619 -0.1206481 185.91442028 -0.15376133 C202.93043024 -0.18750861 219.94636611 -0.20266533 236.96241015 -0.1980443 C246.51339667 -0.19580058 256.06424023 -0.20102842 265.61519814 -0.22593689 C273.74684486 -0.24696346 281.87827026 -0.25052861 290.00992612 -0.2316373 C294.15708255 -0.2224876 298.30382648 -0.2213126 302.45095062 -0.24199295 C306.25160567 -0.26073558 310.05151132 -0.25616352 313.85213812 -0.23344713 C315.86951325 -0.2272989 317.88691781 -0.24562716 319.90420943 -0.26498365 C328.69968028 -0.17944524 335.71308509 1.25753065 342.30767757 7.3841691 C348.78712115 14.18646714 350.73971932 21.00465563 350.64421082 30.32800293 C350.3669302 38.05976323 348.21672041 43.28240842 342.83000183 48.77722168 C340.66484481 50.73747425 338.4683184 52.59865383 336.16593933 54.39440918 C337.13080261 55.38054199 337.13080261 55.38054199 338.11515808 56.38659668 C352.03222625 71.03823192 362.69865717 87.59619254 372.16593933 105.39440918 C372.57296082 106.15237793 372.9799823 106.91034668 373.39933777 107.69128418 C384.77884811 129.21029117 392.00537141 153.48565726 396.16593933 177.39440918 C396.35059753 178.43033203 396.35059753 178.43033203 396.53898621 179.48718262 C406.38660406 237.08700655 392.37872562 301.32213603 359.16593933 349.39440918 C356.19400083 348.26989191 353.83153246 347.17147127 351.16593933 345.39440918 C350.85656433 346.38440918 350.85656433 346.38440918 350.54093933 347.39440918 C348.65441062 351.51047181 345.96025954 354.85317948 343.16593933 358.39440918 C343.78468933 358.70378418 344.40343933 359.01315918 345.04093933 359.33190918 C346.41593933 360.01940918 347.79093933 360.70690918 349.16593933 361.39440918 C347.73584421 365.91615502 345.20541551 368.85494449 341.97843933 372.20690918 C340.97898981 373.26870221 339.98029155 374.33120288 338.98234558 375.39440918 C338.49781921 375.90745605 338.01329285 376.42050293 337.51408386 376.94909668 C335.76378428 378.82554969 334.08608588 380.75903894 332.41593933 382.70690918 C326.78080157 389.16605294 320.72773387 394.7085796 314.04093933 400.07800293 C312.18994273 401.56936296 310.35503084 403.08102664 308.54093933 404.61706543 C294.99097942 416.04984411 275.10083774 432.50325939 256.91555786 432.57522583 C255.62016621 432.58603261 255.62016621 432.58603261 254.29860502 432.5970577 C251.38712748 432.61988779 248.47565853 432.63538475 245.56413269 432.65075684 C243.48307077 432.66520085 241.402011 432.67995843 239.32095337 432.69500732 C220.27297955 432.82559308 201.22441138 432.8912217 182.17607784 432.94285011 C168.10357868 432.9816883 154.03188456 433.04989553 139.95973867 433.15739787 C130.05889086 433.23046729 120.15826188 433.26872012 110.25715548 433.28187597 C104.34905573 433.29071026 98.44194992 433.31471034 92.53414726 433.37654495 C86.96304806 433.43418653 81.39344517 433.44835274 75.82209206 433.43067169 C73.7892778 433.43154343 71.75639788 433.44754711 69.72385406 433.48071671 C55.57174637 433.69946686 46.01906757 431.14936197 34.16593933 423.39440918 C32.79272617 422.52467372 31.41900518 421.65573952 30.04476833 420.78762245 C7.90614103 406.71835992 -12.71561799 389.11065723 -28.83406067 368.39440918 C-29.57873596 367.45637451 -29.57873596 367.45637451 -30.3384552 366.49938965 C-37.98160816 356.87136017 -44.89184041 347.1579593 -50.83406067 336.39440918 C-51.26960266 335.6161377 -51.70514465 334.83786621 -52.15388489 334.03601074 C-82.70277567 279.09719351 -91.05582565 213.08093709 -74.29109192 152.32800293 C-67.16814399 127.79998612 -57.13265655 104.62086457 -42.83406067 83.39440918 C-39.86212217 84.51892645 -37.4996538 85.61734709 -34.83406067 87.39440918 C-34.62781067 86.73440918 -34.42156067 86.07440918 -34.20906067 85.39440918 C-32.32253196 81.27834655 -29.62838088 77.93563888 -26.83406067 74.39440918 C-27.45281067 74.12628418 -28.07156067 73.85815918 -28.70906067 73.58190918 C-30.83406067 72.39440918 -30.83406067 72.39440918 -32.83406067 69.39440918 C-31.42017688 67.64216003 -30.00283284 65.89270263 -28.58406067 64.14440918 C-27.79515442 63.16987793 -27.00624817 62.19534668 -26.19343567 61.19128418 C-24.16940262 58.79193374 -22.09283718 56.57029481 -19.83406067 54.39440918 C-20.42574036 53.9329248 -21.01742004 53.47144043 -21.62702942 52.99597168 C-28.74225651 47.12271735 -33.15675508 41.90241498 -34.30671692 32.55065918 C-34.76539584 24.33826149 -33.96152623 17.1071781 -28.83406067 10.39440918 C-20.26911141 0.96938133 -12.28241381 -0.04990546 0 0 Z " fill="#4CB5E2" transform="translate(97.83406066894531,39.6055908203125)"/>
<path d="M0 0 C1.4178507 -0.00489206 2.8356974 -0.01108332 4.25353736 -0.01845789 C8.14061733 -0.03484084 12.02749427 -0.03254286 15.91459668 -0.02708292 C20.11036671 -0.02441067 24.30608287 -0.03894822 28.50183105 -0.05117798 C36.71857504 -0.07222628 44.93524845 -0.07677316 53.1520162 -0.07499009 C59.8317879 -0.07368211 66.5115376 -0.07748847 73.19130516 -0.08491516 C75.11593411 -0.08701438 77.04056307 -0.08911198 78.96519202 -0.09120798 C79.92316011 -0.09225151 80.88112821 -0.09329504 81.86812564 -0.09437019 C99.9837288 -0.11327031 118.09929146 -0.11222312 136.2149004 -0.10540086 C152.78147064 -0.09982617 169.34788619 -0.1206481 185.91442028 -0.15376133 C202.93043024 -0.18750861 219.94636611 -0.20266533 236.96241015 -0.1980443 C246.51339667 -0.19580058 256.06424023 -0.20102842 265.61519814 -0.22593689 C273.74684486 -0.24696346 281.87827026 -0.25052861 290.00992612 -0.2316373 C294.15708255 -0.2224876 298.30382648 -0.2213126 302.45095062 -0.24199295 C306.25160567 -0.26073558 310.05151132 -0.25616352 313.85213812 -0.23344713 C315.86951325 -0.2272989 317.88691781 -0.24562716 319.90420943 -0.26498365 C328.69968028 -0.17944524 335.71308509 1.25753065 342.30767757 7.3841691 C348.78712115 14.18646714 350.73971932 21.00465563 350.64421082 30.32800293 C350.3669302 38.05976323 348.21672041 43.28240842 342.83000183 48.77722168 C340.66484481 50.73747425 338.4683184 52.59865383 336.16593933 54.39440918 C337.13080261 55.38054199 337.13080261 55.38054199 338.11515808 56.38659668 C352.03222625 71.03823192 362.69865717 87.59619254 372.16593933 105.39440918 C372.57296082 106.15237793 372.9799823 106.91034668 373.39933777 107.69128418 C384.77884811 129.21029117 392.00537141 153.48565726 396.16593933 177.39440918 C396.35059753 178.43033203 396.35059753 178.43033203 396.53898621 179.48718262 C406.38660406 237.08700655 392.37872562 301.32213603 359.16593933 349.39440918 C355.35631821 347.94603174 352.53570509 346.33422039 349.35343933 343.76940918 C348.56324402 343.13776855 347.77304871 342.50612793 346.95890808 341.85534668 C346.36722839 341.3732373 345.77554871 340.89112793 345.16593933 340.39440918 C346.50765689 336.5892102 348.33820781 333.34313792 350.44010925 329.92834473 C366.96859812 303.03235574 375.92908286 273.48780432 380.16593933 242.39440918 C380.26310242 241.7286084 380.3602655 241.06280762 380.46037292 240.37683105 C384.25105104 211.43973352 380.4646433 181.41925758 372.66911316 153.54138184 C372.16593933 151.39440918 372.16593933 151.39440918 372.16593933 148.39440918 C370.99031433 148.02315918 369.81468933 147.65190918 368.60343933 147.26940918 C364.89066961 146.04548351 361.28610254 144.63967458 357.6771698 143.13757324 C339.44677167 135.60057577 320.58938045 134.67978877 302.10099792 142.23864746 C298.59511515 143.70606144 295.11887096 145.22914537 291.66203308 146.80847168 C290.50832214 147.33183105 289.35461121 147.85519043 288.16593933 148.39440918 C287.39379089 148.75276855 286.62164246 149.11112793 285.82609558 149.48034668 C262.68646842 157.431408 240.01983329 151.43720583 218.51359558 142.23425293 C202.2743817 135.33663736 183.67790331 134.78577015 167.16593933 141.39440918 C164.50755692 142.53352022 161.86712948 143.71051497 159.22843933 144.89440918 C138.77242821 154.02868606 116.56990364 155.98795004 95.23918152 148.20349121 C90.33772528 146.29069965 85.54689062 144.13887411 80.75187683 141.97644043 C69.5571385 137.03758528 59.21735796 136.81781231 47.16593933 137.39440918 C46.12566589 137.44081543 45.08539246 137.48722168 44.01359558 137.53503418 C37.11051998 138.28773683 31.20195829 140.9893873 24.91593933 143.76940918 C3.04773356 153.41380919 -20.06769494 156.50855159 -42.94343567 147.85925293 C-46.60365927 146.43838883 -50.22376674 144.93739787 -53.83406067 143.39440918 C-54.88638419 147.04759734 -55.86429318 150.7184921 -56.83406067 154.39440918 C-57.02693665 155.11354492 -57.21981262 155.83268066 -57.41853333 156.5736084 C-65.41537004 186.73579489 -68.47526431 220.45877632 -62.83406067 251.39440918 C-62.68871887 252.19685059 -62.54337708 252.99929199 -62.39363098 253.8260498 C-52.00976058 308.66780847 -22.93634882 360.75753077 22.46574402 394.14294434 C24.16230437 395.39173359 25.83989908 396.66328021 27.51750183 397.93737793 C30.99145383 400.53972794 34.56050155 402.9786744 38.16593933 405.39440918 C39.12718456 406.04508879 39.12718456 406.04508879 40.10784888 406.70891345 C52.35561318 414.80420288 62.17043877 416.85433802 76.68205261 416.67248535 C78.66860314 416.68443372 80.65513183 416.70063918 82.64161682 416.72071838 C87.98097127 416.76163653 93.31833483 416.74045781 98.65766001 416.70473266 C104.27689892 416.67543487 109.89600361 416.69628963 115.51527405 416.70918274 C124.94487839 416.72275047 134.37369036 416.69513011 143.80314636 416.64318848 C154.66802251 416.5839029 165.53124976 416.59278669 176.39615834 416.63753527 C186.89886077 416.6789746 197.40095126 416.66931531 207.90366745 416.63768959 C212.35080428 416.62532394 216.79736253 416.63094034 221.24446487 416.65163231 C226.49026222 416.67391498 231.73407455 416.65119921 236.97960281 416.59531212 C238.8917951 416.58193987 240.80416567 416.58344487 242.71631622 416.60184097 C256.25697633 416.71881013 264.98218223 414.03708644 276.16593933 406.39440918 C277.72359979 405.40335744 279.2818949 404.41329955 280.84172058 403.42565918 C282.05985827 402.59044696 283.27238198 401.74697268 284.47843933 400.89440918 C285.13666687 400.43501953 285.79489441 399.97562988 286.47306824 399.50231934 C292.27184451 395.40964801 297.79896189 391.04019903 303.16593933 386.39440918 C303.97031433 385.70089355 304.77468933 385.00737793 305.60343933 384.29284668 C316.36877944 374.80416549 326.36633853 364.74066447 335.16593933 353.39440918 C338.78870248 354.71996728 341.80099281 356.33787873 344.97843933 358.51940918 C345.76863464 359.0582373 346.55882996 359.59706543 347.37297058 360.15222168 C348.26049011 360.76710449 348.26049011 360.76710449 349.16593933 361.39440918 C347.73584421 365.91615502 345.20541551 368.85494449 341.97843933 372.20690918 C340.97898981 373.26870221 339.98029155 374.33120288 338.98234558 375.39440918 C338.49781921 375.90745605 338.01329285 376.42050293 337.51408386 376.94909668 C335.76378428 378.82554969 334.08608588 380.75903894 332.41593933 382.70690918 C326.78080157 389.16605294 320.72773387 394.7085796 314.04093933 400.07800293 C312.18994273 401.56936296 310.35503084 403.08102664 308.54093933 404.61706543 C294.99097942 416.04984411 275.10083774 432.50325939 256.91555786 432.57522583 C255.62016621 432.58603261 255.62016621 432.58603261 254.29860502 432.5970577 C251.38712748 432.61988779 248.47565853 432.63538475 245.56413269 432.65075684 C243.48307077 432.66520085 241.402011 432.67995843 239.32095337 432.69500732 C220.27297955 432.82559308 201.22441138 432.8912217 182.17607784 432.94285011 C168.10357868 432.9816883 154.03188456 433.04989553 139.95973867 433.15739787 C130.05889086 433.23046729 120.15826188 433.26872012 110.25715548 433.28187597 C104.34905573 433.29071026 98.44194992 433.31471034 92.53414726 433.37654495 C86.96304806 433.43418653 81.39344517 433.44835274 75.82209206 433.43067169 C73.7892778 433.43154343 71.75639788 433.44754711 69.72385406 433.48071671 C55.57174637 433.69946686 46.01906757 431.14936197 34.16593933 423.39440918 C32.79272617 422.52467372 31.41900518 421.65573952 30.04476833 420.78762245 C7.90614103 406.71835992 -12.71561799 389.11065723 -28.83406067 368.39440918 C-29.57873596 367.45637451 -29.57873596 367.45637451 -30.3384552 366.49938965 C-37.98160816 356.87136017 -44.89184041 347.1579593 -50.83406067 336.39440918 C-51.26960266 335.6161377 -51.70514465 334.83786621 -52.15388489 334.03601074 C-82.70277567 279.09719351 -91.05582565 213.08093709 -74.29109192 152.32800293 C-67.16814399 127.79998612 -57.13265655 104.62086457 -42.83406067 83.39440918 C-39.86212217 84.51892645 -37.4996538 85.61734709 -34.83406067 87.39440918 C-34.62781067 86.73440918 -34.42156067 86.07440918 -34.20906067 85.39440918 C-32.32253196 81.27834655 -29.62838088 77.93563888 -26.83406067 74.39440918 C-27.45281067 74.12628418 -28.07156067 73.85815918 -28.70906067 73.58190918 C-30.83406067 72.39440918 -30.83406067 72.39440918 -32.83406067 69.39440918 C-31.42017688 67.64216003 -30.00283284 65.89270263 -28.58406067 64.14440918 C-27.79515442 63.16987793 -27.00624817 62.19534668 -26.19343567 61.19128418 C-24.16940262 58.79193374 -22.09283718 56.57029481 -19.83406067 54.39440918 C-20.42574036 53.9329248 -21.01742004 53.47144043 -21.62702942 52.99597168 C-28.74225651 47.12271735 -33.15675508 41.90241498 -34.30671692 32.55065918 C-34.76539584 24.33826149 -33.96152623 17.1071781 -28.83406067 10.39440918 C-20.26911141 0.96938133 -12.28241381 -0.04990546 0 0 Z " fill="#000101" transform="translate(97.83406066894531,39.6055908203125)"/>
<path d="M0 0 C0.98226562 -0.01417969 1.96453125 -0.02835938 2.9765625 -0.04296875 C10.64942828 0.47737502 16.94322557 2.65826449 23.75 6.125 C32.43343482 10.36068332 40.46708762 12.81703428 50.0625 14.125 C58.734282 15.40780799 64.31993467 18.03543871 69.8984375 24.92578125 C73.58967634 30.57982169 74.52693141 36.3457869 74.44140625 43.01171875 C74.42702515 44.47291138 74.42702515 44.47291138 74.41235352 45.96362305 C74.40002686 46.69750244 74.3877002 47.43138184 74.375 48.1875 C79.37354577 48.38620375 84.36976527 48.5308522 89.37133789 48.62695312 C91.06998764 48.66703163 92.768364 48.72151432 94.46606445 48.79101562 C104.22174342 49.53653649 104.22174342 49.53653649 113.08935547 46.37109375 C114.82888957 44.38305478 116.17785247 42.5361201 117.375 40.1875 C116.01562915 37.3269109 114.72979531 35.32822301 112.375 33.1875 C129.42807881 15.34329898 150.46975805 1.46879649 175.84765625 -0.015625 C177.62462891 -0.03882813 177.62462891 -0.03882813 179.4375 -0.0625 C181.21833984 -0.10117188 181.21833984 -0.10117188 183.03515625 -0.140625 C186.6558712 0.21509436 188.49524695 1.01051238 191.375 3.1875 C193.4821949 7.40188979 192.5608517 12.91662123 192.56030273 17.55151367 C192.56245867 19.58599754 192.58052694 21.61991124 192.59960938 23.65429688 C192.62571295 41.32641435 189.1246069 55.07183571 176.578125 68.06640625 C165.0269337 79.1875 165.0269337 79.1875 160.375 79.1875 C160.375 79.8475 160.375 80.5075 160.375 81.1875 C161.035 81.39375 161.695 81.6 162.375 81.8125 C175.04069394 87.61760972 184.3961151 99.16493349 189.45141602 111.89892578 C192.33308279 120.16059978 192.97096751 127.91771386 192.84155273 136.56542969 C192.81214193 138.71365425 192.8210865 140.85946526 192.83398438 143.0078125 C192.78073326 154.83280857 192.78073326 154.83280857 189.375 159.1875 C175.06916643 163.95611119 156.24575948 157.57849781 143.375 151.1875 C126.94335528 142.60349098 114.78784072 130.62218035 103.375 116.1875 C101.34411741 117.49188801 99.33805538 118.82355321 97.34375 120.18359375 C95.15491961 121.66105426 92.9564021 123.07412369 90.71875 124.47265625 C81.04373467 130.75928247 76.71023608 136.87042452 72.21044922 147.36474609 C68.80193324 154.80132714 63.01818943 160.90034005 57.53125 166.84765625 C54.72643737 169.89128445 52.0513035 173.03083433 49.375 176.1875 C50.035 176.22875 50.695 176.27 51.375 176.3125 C57.0902834 177.97945766 61.77991969 181.67703553 64.8125 186.8125 C68.0130755 193.72574308 68.66811463 201.21618799 66.125 208.5 C63.73939672 214.60979506 59.30592865 218.2927043 53.875 221.6875 C53.2569751 222.07550781 52.6389502 222.46351563 52.00219727 222.86328125 C42.89126099 228.45060584 32.40306418 233.87501586 21.375 232.1875 C16.64260328 228.40007068 13.11523841 223.16912402 9.4375 218.375 C8.54514648 217.22161133 8.54514648 217.22161133 7.63476562 216.04492188 C6.45348362 214.51506485 5.27584078 212.98239016 4.10205078 211.44677734 C2.94003286 209.92665947 1.77160504 208.41142238 0.59716797 206.90087891 C-0.22630127 205.83039307 -0.22630127 205.83039307 -1.06640625 204.73828125 C-1.55955322 204.10188721 -2.0527002 203.46549316 -2.56079102 202.80981445 C-3.625 201.1875 -3.625 201.1875 -3.625 199.1875 C-4.69379395 199.34831055 -5.76258789 199.50912109 -6.86376953 199.67480469 C-12.50290536 200.3750441 -18.1289304 200.36880173 -23.8046875 200.390625 C-24.97146027 200.39632507 -26.13823303 200.40202515 -27.34036255 200.40789795 C-29.80632633 200.41731607 -32.27230251 200.4238692 -34.73828125 200.42773438 C-38.4533581 200.43737892 -42.16786663 200.46840865 -45.8828125 200.5 C-75.66989607 200.63412374 -102.06560149 195.37047282 -123.98046875 173.8671875 C-124.85316406 172.98289062 -125.72585937 172.09859375 -126.625 171.1875 C-127.36363281 170.44757813 -128.10226563 169.70765625 -128.86328125 168.9453125 C-137.45195555 159.83965004 -144.02994005 149.85873433 -143.90234375 137.11328125 C-142.2583194 113.8422323 -132.02173526 92.61138217 -115.625 76.1875 C-114.80515625 75.35605469 -113.9853125 74.52460938 -113.140625 73.66796875 C-95.50923143 56.68862376 -71.98200993 47.64846408 -47.55078125 48.03369141 C-45.90855682 48.07433646 -44.26669438 48.12925329 -42.625 48.1875 C-42.16480469 47.02154297 -42.16480469 47.02154297 -41.6953125 45.83203125 C-40.77065792 43.54739202 -39.75860087 41.37373025 -38.625 39.1875 C-40.275 38.5275 -41.925 37.8675 -43.625 37.1875 C-43.625 32.30295787 -42.44976703 31.16686224 -39.5 27.375 C-39.08548584 26.84165039 -38.67097168 26.30830078 -38.24389648 25.75878906 C-37.04707788 24.22756869 -35.83637775 22.70722845 -34.625 21.1875 C-34.10292969 20.50816406 -33.58085937 19.82882813 -33.04296875 19.12890625 C-25.16168345 9.2943341 -12.98258757 0.08386684 0 0 Z " fill="#010101" transform="translate(239.625,207.8125)"/>
<path d="M0 0 C1.28130962 -0.01459662 2.56261923 -0.02919325 3.88275641 -0.04423219 C7.42405595 -0.0833252 10.96370463 -0.07278343 14.50510418 -0.05371797 C18.33018389 -0.04176793 22.15490037 -0.07583959 25.9798584 -0.10379028 C33.46768765 -0.15088789 40.95492571 -0.15439179 48.44286875 -0.14156421 C54.531033 -0.13168975 60.61902163 -0.13634491 66.7071743 -0.15128517 C67.57437786 -0.1533772 68.44158142 -0.15546924 69.33506387 -0.15762467 C71.09692659 -0.16189948 72.85878928 -0.16619031 74.62065192 -0.17049698 C91.13689101 -0.20881391 107.65279559 -0.19579087 124.16903343 -0.16674171 C139.26725339 -0.14171474 154.36456259 -0.17883134 169.46263138 -0.24570831 C184.97697054 -0.31390703 200.49088394 -0.34133167 216.00537127 -0.32427961 C224.71096001 -0.31538973 233.41582912 -0.32228441 242.12130165 -0.3714962 C249.53335294 -0.41290501 256.94419592 -0.41547111 264.35623483 -0.36856421 C268.13553985 -0.34568382 271.91267456 -0.34016691 275.69185638 -0.38286972 C300.73895843 -0.64610353 300.73895843 -0.64610353 306.92159146 4.80775899 C308.97190361 7.04861709 310.58320273 9.46461044 312.19132996 12.03605652 C313.69301857 13.82315362 315.21161332 15.59631436 316.75382996 17.34855652 C329.17329288 32.98298679 342.71617962 50.96147571 349.19132996 70.03605652 C348.86132996 70.69605652 348.53132996 71.35605652 348.19132996 72.03605652 C347.08273621 71.68672058 345.97414246 71.33738464 344.83195496 70.97746277 C343.36843238 70.51776657 341.90488965 70.05813452 340.44132996 69.59855652 C339.71172058 69.36845886 338.98211121 69.13836121 338.23039246 68.90129089 C337.52140808 68.67892761 336.81242371 68.45656433 336.08195496 68.22746277 C335.43258972 68.02322693 334.78322449 67.81899109 334.11418152 67.60856628 C330.40138619 66.50311872 327.19885618 65.90845172 323.30461121 65.90324402 C322.36552917 65.90195496 321.42644714 65.90066589 320.45890808 65.89933777 C318.99614441 65.90513855 318.99614441 65.90513855 317.50382996 65.91105652 C316.07007019 65.90525574 316.07007019 65.90525574 314.60734558 65.89933777 C299.88291376 65.91941198 288.15291735 69.53387398 274.79850769 75.57365417 C259.99468249 82.25109261 241.03693814 84.00242325 225.52336121 78.44621277 C222.18619371 77.0338828 218.88955792 75.55192302 215.59489441 74.04386902 C195.62224823 64.91256431 172.64986443 62.39386873 151.56242371 69.72746277 C148.40966321 70.95130375 145.33695551 72.27818798 142.25553894 73.6681366 C125.38341047 81.27306641 106.30897661 84.96824378 88.33195496 78.37980652 C83.87414261 76.47248382 79.42962761 74.53746098 75.00822449 72.54704285 C57.24411599 64.62194858 34.0423128 62.81217201 15.51554871 69.32902527 C12.32369331 70.57025691 9.17177 71.89866359 6.02580261 73.25138855 C-11.59097261 80.78669805 -30.36378541 84.94118274 -49.01960754 78.19230652 C-57.03306029 74.87020286 -57.03306029 74.87020286 -60.80867004 73.03605652 C-60.3555978 66.83720447 -57.45058017 62.02203873 -54.55867004 56.66105652 C-53.84130676 55.29980652 -53.84130676 55.29980652 -53.10945129 53.91105652 C-50.2172668 48.47155505 -47.13559808 43.22072174 -43.80867004 38.03605652 C-44.61304504 37.41730652 -45.41742004 36.79855652 -46.24617004 36.16105652 C-48.80867004 34.03605652 -48.80867004 34.03605652 -49.80867004 32.03605652 C-48.57507157 30.19164715 -47.32122285 28.36076787 -46.05867004 26.53605652 C-45.01452942 25.00465027 -45.01452942 25.00465027 -43.94929504 23.44230652 C-43.24288879 22.64824402 -42.53648254 21.85418152 -41.80867004 21.03605652 C-38.01309124 21.03605652 -36.17964388 21.53784593 -32.80867004 23.03605652 C-32.03523254 22.11824402 -31.26179504 21.20043152 -30.46492004 20.25480652 C-29.41302023 19.01506745 -28.36092634 17.77549303 -27.30867004 16.53605652 C-26.80335754 15.93535339 -26.29804504 15.33465027 -25.77742004 14.71574402 C-24.74209351 13.49923534 -23.69211174 12.29503746 -22.62741059 11.10415298 C-21.4380869 9.75176871 -20.28522752 8.36619399 -19.17633325 6.94711417 C-13.44597249 0.22995798 -8.53295406 -0.11319995 0 0 Z " fill="#9EDBE3" transform="translate(111.80867004394531,94.96394348144531)"/>
<path d="M0 0 C1.51854952 0.000565 3.03709959 0.00024582 4.5556488 -0.00088501 C8.65420726 -0.00145605 12.75264733 0.01025775 16.85117841 0.02426291 C21.14328735 0.03681194 25.43539935 0.03794404 29.7275238 0.04031372 C37.8445898 0.04651627 45.96160156 0.06291042 54.07864374 0.0830127 C63.32413445 0.10540994 72.56962783 0.11637473 81.81513894 0.12640357 C100.82397421 0.14727779 119.83275911 0.18242983 138.84155273 0.22705078 C139.11547946 5.18876416 139.31392813 10.14600238 139.44580078 15.11352539 C139.50080169 16.79887591 139.57564031 18.48370905 139.67138672 20.16723633 C140.44459564 34.12221019 140.44459564 34.12221019 136.51799011 39.2779541 C133.72632926 41.58054917 130.97707512 43.42949399 127.84155273 45.22705078 C126.18632553 46.33346824 124.53555091 47.44662338 122.89233398 48.57080078 C122.11100098 49.08594238 121.32966797 49.60108398 120.5246582 50.13183594 C110.39920907 56.94539769 106.04796164 63.0824568 101.68969727 74.27294922 C95.68137576 88.11595593 80.86670816 101.14450572 67.84155273 108.22705078 C66.93276367 108.74654297 66.02397461 109.26603516 65.08764648 109.80126953 C54.0230681 115.77764724 40.55670939 120.28288835 27.91235352 120.40405273 C26.15364426 120.42330559 26.15364426 120.42330559 24.35940552 120.44294739 C23.09796722 120.45033432 21.83652893 120.45772125 20.53686523 120.46533203 C19.22555634 120.47340378 17.91424744 120.48147552 16.5632019 120.48979187 C13.78424208 120.50478958 11.00530746 120.51463777 8.22631836 120.5222168 C4.70882099 120.53319796 1.19197084 120.56751055 -2.32530022 120.6073885 C-5.0658362 120.63386891 -7.80622624 120.64193656 -10.54687881 120.64549828 C-12.46029019 120.65258985 -14.37360053 120.6788991 -16.28683472 120.70588684 C-28.31616599 120.67665695 -39.85349843 118.10623436 -50.53344727 112.41455078 C-51.53093994 111.8996106 -51.53093994 111.8996106 -52.54858398 111.37426758 C-57.89676769 108.53700195 -62.58097754 105.19022803 -67.15844727 101.22705078 C-68.64344727 100.14423828 -68.64344727 100.14423828 -70.15844727 99.03955078 C-76.58322894 93.65857117 -84.62464077 83.80253506 -85.59594727 75.47705078 C-84.87022014 57.97251252 -77.55224501 41.34975813 -66.15844727 28.22705078 C-65.39532227 27.21642578 -64.63219727 26.20580078 -63.84594727 25.16455078 C-53.23577505 13.56738581 -39.31436458 5.9289798 -24.15844727 2.22705078 C-22.91946182 1.88545929 -21.68047638 1.5438678 -20.40394592 1.19192505 C-13.6679198 -0.28650376 -6.86093585 -0.03592126 0 0 Z " fill="#F56300" transform="translate(197.158447265625,271.77294921875)"/>
<path d="M0 0 C1.16783612 -0.00384115 2.33567224 -0.00768229 3.53889734 -0.01163983 C5.48024443 -0.01034011 5.48024443 -0.01034011 7.46081066 -0.00901413 C8.84078228 -0.01159638 10.22075315 -0.01460914 11.60072297 -0.01801753 C15.40608217 -0.02610732 19.21142253 -0.0278782 23.01678932 -0.028615 C27.11573443 -0.03046213 31.21466969 -0.03800773 35.31360912 -0.04475021 C44.28254729 -0.05834813 53.25148099 -0.06436053 62.22042775 -0.06876087 C67.81764811 -0.07152085 73.41486673 -0.07575775 79.01208591 -0.08026505 C94.50038355 -0.09245965 109.98867979 -0.10275856 125.47698212 -0.10614014 C126.46880383 -0.1063597 127.46062555 -0.10657927 128.48250247 -0.10680549 C129.47673655 -0.10702377 130.47097063 -0.10724204 131.49533302 -0.10746694 C133.51012663 -0.10791041 135.52492025 -0.10835697 137.53971386 -0.10880661 C138.53912725 -0.10902804 139.53854065 -0.10924947 140.56823929 -0.10947761 C156.76663713 -0.11342661 172.96499 -0.13088291 189.16337047 -0.15416613 C205.7825521 -0.17786195 222.40171116 -0.19034118 239.02090997 -0.19150805 C248.35659748 -0.19242582 257.69222642 -0.19820349 267.02789783 -0.21632767 C274.97677054 -0.23170481 282.92556657 -0.23686327 290.87445132 -0.22858956 C294.93175129 -0.22467455 298.98889676 -0.22565391 303.04617786 -0.23964691 C306.75901553 -0.25233512 310.4715818 -0.2512334 314.18441882 -0.2390562 C316.1669486 -0.2361576 318.14948286 -0.24807338 320.13197595 -0.26047826 C321.89546499 -0.25059349 321.89546499 -0.25059349 323.69458008 -0.24050903 C324.70924782 -0.24110612 325.72391555 -0.24170321 326.7693308 -0.24231839 C331.13557248 0.34750114 333.74382903 2.36061647 336.84855175 5.38142776 C339.02986359 8.93615817 339.04984198 11.02110596 338.53605175 15.13142776 C337.01613071 18.31602423 335.25309216 20.86722742 332.53605175 23.13142776 C329.41068958 24.17321515 327.23401073 24.26193307 323.9546423 24.27123547 C322.20175164 24.27977233 322.20175164 24.27977233 320.41344905 24.28848165 C318.47851757 24.29025147 318.47851757 24.29025147 316.50449657 24.29205704 C315.12508667 24.2967873 313.74567816 24.30193811 312.36627126 24.30747467 C308.56703953 24.32139291 304.7678174 24.32896777 300.96856666 24.33544767 C297.71204259 24.34181557 294.4555343 24.35188605 291.19902006 24.36200833 C280.47001751 24.3953414 269.74100537 24.41685414 259.01196802 24.43520817 C256.21896932 24.44000256 253.42597101 24.44498594 250.63297272 24.4500134 C233.29419434 24.48098114 215.95541263 24.50767035 198.61661434 24.52443218 C194.60001399 24.52838177 190.5834137 24.53238475 186.56681347 24.53645706 C185.5684902 24.53746542 184.57016693 24.53847378 183.54159144 24.5395127 C167.36395284 24.55652509 151.18646707 24.59764063 135.00890312 24.64848005 C118.40550258 24.70022923 101.8021807 24.72937077 85.19870019 24.73662907 C75.87405692 24.74129444 66.54966401 24.75607845 57.22510052 24.79637337 C49.28503899 24.83064349 41.34527299 24.84462494 33.40514174 24.83194923 C29.35348088 24.82611539 25.30244526 24.8300363 21.25087833 24.86011887 C17.54080155 24.8874413 13.83179536 24.88701448 10.12169519 24.86460841 C8.14561913 24.85985264 6.16954005 24.88467257 4.19362807 24.91057771 C-2.37348732 24.84060242 -6.55304274 24.4654702 -11.31103969 19.71129376 C-13.9547442 16.08854431 -13.96657903 12.43969158 -13.46394825 8.13142776 C-9.7719246 2.38323094 -6.8476044 0.00841618 0 0 Z " fill="#9EDBE3" transform="translate(93.4639482498169,55.86857223510742)"/>
<path d="M0 0 C0.62499029 14.49630262 -0.36133468 27.33157824 -10 39 C-15.49135661 44.52920084 -21.70715821 48.4630788 -28.4375 52.3125 C-30.23054192 53.34562763 -32.0210547 54.38316139 -33.80859375 55.42578125 C-34.59032959 55.87348877 -35.37206543 56.32119629 -36.17749023 56.7824707 C-38.14652274 57.88028949 -38.14652274 57.88028949 -39 60 C-39.48982642 64.24676277 -39.48982642 64.24676277 -37.52734375 67.86328125 C-34.03059312 70.81957583 -30.19428423 73.00498955 -26.25 75.3125 C-13.84345371 82.77392608 -4.46632288 90.34618228 -0.45703125 104.9296875 C0.57868925 111.88760468 0.20625548 118.98731377 0 126 C-17.05046494 126.44143599 -32.71619138 117.62761331 -45.28515625 106.64453125 C-48.7572708 103.26234197 -51.81234857 99.67260166 -54.76953125 95.8359375 C-56.80721797 93.10313439 -56.80721797 93.10313439 -58.71981812 91.37240601 C-63.46179044 86.7012568 -64.80501181 83.34748073 -64.89424133 76.72540283 C-64.87371201 75.70742615 -64.85318268 74.68944946 -64.83203125 73.640625 C-64.83957932 72.57382507 -64.84712738 71.50702515 -64.85490417 70.40789795 C-64.87333618 67.02105878 -64.84503197 63.63669887 -64.8125 60.25 C-64.8064889 56.8496386 -64.81026861 53.44959474 -64.82365417 50.04925537 C-64.82914198 47.93910027 -64.82189506 45.82886472 -64.80049133 43.71881104 C-64.79776718 42.76391785 -64.79504303 41.80902466 -64.79223633 40.82519531 C-64.78444656 39.98772766 -64.7766568 39.15026001 -64.76863098 38.28741455 C-64.9036453 35.60115541 -64.9036453 35.60115541 -67 32 C-64.03 28.7 -61.06 25.4 -58 22 C-56.35 22.99 -54.7 23.98 -53 25 C-52.01 25 -51.02 25 -50 25 C-48.63389311 23.36008917 -47.30646456 21.68781098 -46 20 C-33.48577161 8.63522666 -17.2744398 -0.61694428 0 0 Z " fill="#FC7C18" transform="translate(416,225)"/>
<path d="M0 0 C1.92876109 -0.02022481 1.92876109 -0.02022481 3.89648706 -0.04085821 C7.44144927 -0.07658701 10.98359637 -0.05048772 14.52844608 -0.0136205 C18.36019461 0.01529317 22.19157861 -0.01369141 26.02331543 -0.03518677 C33.5191052 -0.06802669 41.013829 -0.04739988 48.50955053 -0.0079853 C57.24200969 0.03620181 65.9742127 0.02962039 74.70675305 0.02165396 C90.28773613 0.00940725 105.86821165 0.04684772 121.4490509 0.11073303 C136.56282893 0.17269041 151.67597993 0.1939013 166.78987122 0.17225647 C183.25855974 0.14872776 199.7269669 0.14715905 216.19564039 0.18432623 C217.95175984 0.18826657 219.70787931 0.1921989 221.46399879 0.19612312 C222.32799456 0.19808801 223.19199032 0.20005291 224.08216777 0.20207734 C230.16745736 0.21457263 236.25263351 0.21194308 242.33792686 0.20388603 C249.7528029 0.19471216 257.16711218 0.2111671 264.58184119 0.26000743 C268.36421092 0.284354 272.14573979 0.29764261 275.92816925 0.2806282 C280.0291813 0.26259639 284.12792079 0.29884751 288.22875977 0.34057617 C290.02057978 0.32022313 290.02057978 0.32022313 291.84859818 0.29945892 C297.54114049 0.40335258 301.03530789 0.66153268 305.21735096 4.7439661 C307.92390442 7.92973461 307.92390442 7.92973461 307.92390442 9.24964905 C307.23426066 9.24986642 306.54461691 9.25008378 305.83407485 9.25030774 C264.97489517 9.26381882 224.11581245 9.30327654 183.25669401 9.37650467 C178.3524702 9.38527159 173.44824603 9.39382137 168.54402161 9.40223694 C167.56766444 9.403916 166.59130727 9.40559506 165.58536352 9.40732501 C149.76905459 9.43400663 133.9527819 9.44309092 118.13645278 9.44569048 C101.911655 9.44874817 85.68696213 9.47067358 69.46221173 9.51017362 C59.44781085 9.53395775 49.43361931 9.54296327 39.41919406 9.53316215 C32.55517924 9.52785307 25.69135228 9.54084404 18.82739095 9.56831195 C14.86509034 9.583625 10.90321005 9.5907864 6.94089699 9.57624626 C3.31345169 9.56311288 -0.31317834 9.57295185 -3.9405316 9.60108677 C-5.87468165 9.61010621 -7.80889807 9.59451992 -9.7429992 9.57806939 C-16.83696838 9.54204402 -16.83696838 9.54204402 -22.89707756 12.78960133 C-23.97569148 14.00732495 -23.97569148 14.00732495 -25.07609558 15.24964905 C-20.09739435 3.82592466 -11.87679991 -0.24349998 0 0 Z " fill="#90D6DE" transform="translate(112.07609558105469,94.75035095214844)"/>
<path d="M0 0 C6.5050875 3.68360377 11.85008743 8.78804102 13.9453125 16.1015625 C14.98243711 23.57601228 13.76585569 30.02744456 9.46875 36.234375 C4.89560658 41.89337896 0.37986492 45.52704559 -6.94921875 46.4765625 C-13.4837736 46.73958861 -18.78929928 46.15273404 -24.0546875 42.1015625 C-30.31146473 36.28629173 -34.10878598 30.36248449 -34.4921875 21.6640625 C-34.25525412 14.99347647 -32.56364046 10.73689929 -27.9609375 5.90234375 C-19.7156089 -1.75206963 -10.78488932 -4.67199659 0 0 Z " fill="#030100" transform="translate(178.0546875,305.8984375)"/>
<path d="M0 0 C1.4753912 0.73801986 2.95065268 1.4762991 4.42578125 2.21484375 C11.2363384 5.59628768 18.30196066 7.75811979 25.80859375 8.94140625 C26.52523193 9.05766357 27.24187012 9.1739209 27.98022461 9.29370117 C29.36925262 9.50826133 30.76228514 9.69883601 32.15844727 9.8605957 C35.81852556 10.40496713 38.103972 11.29900166 40.57421875 13.984375 C43.72456689 19.00092937 42.97973998 22.4322643 42.625 28.25 C35.695 28.25 28.765 28.25 21.625 28.25 C22.615 25.775 22.615 25.775 23.625 23.25 C22.820625 23.0025 22.01625 22.755 21.1875 22.5 C16.88175857 20.98921353 12.77135993 19.14811144 8.625 17.25 C8.356875 18.136875 8.08875 19.02375 7.8125 19.9375 C6.65793908 23.15811729 5.73376847 25.5595023 3.625 28.25 C0.70703125 28.73828125 0.70703125 28.73828125 -2.5625 28.5625 C-3.64917969 28.51738281 -4.73585937 28.47226562 -5.85546875 28.42578125 C-7.10263672 28.33876953 -7.10263672 28.33876953 -8.375 28.25 C-7.70791016 27.21939453 -7.70791016 27.21939453 -7.02734375 26.16796875 C-6.46144531 25.26691406 -5.89554688 24.36585938 -5.3125 23.4375 C-4.74402344 22.54417969 -4.17554688 21.65085938 -3.58984375 20.73046875 C-1.99761229 18.21338183 -1.99761229 18.21338183 -3.375 15.25 C-5.35225378 13.53545408 -5.35225378 13.53545408 -7.75 12 C-8.54148438 11.45859375 -9.33296875 10.9171875 -10.1484375 10.359375 C-12.45340656 8.88385054 -12.45340656 8.88385054 -15.375 10.25 C-16.39676584 12.0612832 -16.39676584 12.0612832 -17.203125 14.28515625 C-19.75265984 19.82604246 -22.20506067 24.76612171 -27.375 28.25 C-37.42138147 30.61842625 -48.21028339 29.34348275 -58.375 28.25 C-57.1117158 24.89405806 -56.11584921 22.61709704 -53.375 20.25 C-49.91 22.23 -49.91 22.23 -46.375 24.25 C-46.03855469 23.20972656 -46.03855469 23.20972656 -45.6953125 22.1484375 C-44.06756745 18.57510369 -41.79763806 15.81673592 -39.25 12.875 C-38.75862549 12.30281738 -38.26725098 11.73063477 -37.76098633 11.14111328 C-26.51201191 -1.75829689 -16.41112233 -8.10696297 0 0 Z " fill="#FA7B18" transform="translate(255.375,227.75)"/>
<path d="M0 0 C7.89434935 4.14703162 12.09076745 18.05298169 14.89453125 25.88671875 C20.81938297 46.97140234 16.84443495 68.57955891 6.8515625 87.546875 C5.05739801 90.62008254 3.16217044 93.27522779 0.8515625 95.97265625 C-4.23782561 94.38222246 -8.02300393 91.22796115 -12.1484375 87.97265625 C-10.63980436 83.94963454 -8.73121906 80.26122726 -6.7109375 76.47265625 C0.42058275 62.39375002 2.8276877 45.17029576 -1.58911133 29.78540039 C-3.74646685 23.2794531 -6.86938314 17.64363144 -10.79296875 12.046875 C-12.1484375 9.97265625 -12.1484375 9.97265625 -12.1484375 7.97265625 C-10.1015625 5.9921875 -10.1015625 5.9921875 -7.3984375 3.78515625 C-6.51671875 3.04910156 -5.635 2.31304687 -4.7265625 1.5546875 C-2.1484375 -0.02734375 -2.1484375 -0.02734375 0 0 Z " fill="#040100" transform="translate(206.1484375,284.02734375)"/>
<path d="M0 0 C6.28461681 3.21073388 10.24893437 7.3171156 12.51953125 14.12890625 C13.26165958 20.97838577 12.60370512 26.46904802 8.51953125 32.12890625 C3.95642243 37.16627076 -1.17468975 39.14866757 -7.85546875 39.50390625 C-13.97503112 39.34911125 -18.55056869 37.11096577 -22.79296875 32.75390625 C-23.34984375 31.88765625 -23.90671875 31.02140625 -24.48046875 30.12890625 C-25.05796875 29.24203125 -25.63546875 28.35515625 -26.23046875 27.44140625 C-28.44805707 21.56479721 -28.48673802 15.69345095 -25.98046875 9.87890625 C-20.72806694 0.59778048 -10.07355293 -3.53764142 0 0 Z " fill="#010304" transform="translate(75.48046875,216.87109375)"/>
<path d="M0 0 C8.84618579 3.05808542 8.84618579 3.05808542 11.19921875 6.14453125 C11.81024594 10.26896477 11.81509776 12.30282993 9.32421875 15.70703125 C5.17792172 18.94114293 0.79399786 21.59685698 -3.80078125 24.14453125 C-4.78884766 24.72654297 -4.78884766 24.72654297 -5.796875 25.3203125 C-8.36049404 26.3747445 -10.04247367 26.45366087 -12.80078125 26.14453125 C-14.65356445 24.53979492 -14.65356445 24.53979492 -16.3515625 22.3125 C-16.96708984 21.51392578 -17.58261719 20.71535156 -18.21679688 19.89257812 C-18.84263672 19.04759766 -19.46847656 18.20261719 -20.11328125 17.33203125 C-20.75845703 16.49865234 -21.40363281 15.66527344 -22.06835938 14.80664062 C-26.80078125 8.5718626 -26.80078125 8.5718626 -26.80078125 5.14453125 C-25.74117187 4.72300781 -24.6815625 4.30148437 -23.58984375 3.8671875 C-22.20180476 3.31384763 -20.81378492 2.76045972 -19.42578125 2.20703125 C-18.72710937 1.92923828 -18.0284375 1.65144531 -17.30859375 1.36523438 C-10.43301301 -1.37838679 -7.14654763 -2.18283672 0 0 Z " fill="#FB7B18" transform="translate(279.80078125,396.85546875)"/>
<path d="M0 0 C3.3258409 2.062783 6.23502468 4.47004936 8 8 C8.37838031 13.01353911 8.13135639 16.00482115 5 20 C2.03139103 23.13824377 0.43209585 23.93030712 -3.875 24.625 C-8.19954173 24.41985096 -10.55101375 22.46660462 -13.65234375 19.60546875 C-15.71006082 17.15410146 -16.0156376 14.88383497 -16.4375 11.75 C-15.8560227 6.76590888 -13.62718402 4.32648483 -10 1 C-6.7374887 -0.63125565 -3.5120384 -0.68851113 0 0 Z " fill="#020405" transform="translate(88,280)"/>
<path d="M0 0 C3.3258409 2.062783 6.23502468 4.47004936 8 8 C8.45813548 14.07029508 7.41076984 17.18743518 3.5 21.75 C1.10492849 23.74589293 -1.20504322 24.02760197 -4.25 24.4375 C-9.23409112 23.8560227 -11.67351517 21.62718402 -15 18 C-16.63125565 14.7374887 -16.68851113 11.5120384 -16 8 C-12.09306677 1.7008215 -7.64534629 -1.49881789 0 0 Z " fill="#020405" transform="translate(112,240)"/>
<path d="M0 0 C5.28 0 10.56 0 16 0 C16 5.28 16 10.56 16 16 C10.72 16 5.44 16 0 16 C0 10.72 0 5.44 0 0 Z " fill="#000000" transform="translate(256,320)"/>
<path d="M0 0 C5.28 0 10.56 0 16 0 C16 5.28 16 10.56 16 16 C10.72 16 5.44 16 0 16 C0 10.72 0 5.44 0 0 Z " fill="#000000" transform="translate(272,288)"/>
<path d="M0 0 C5.28 0 10.56 0 16 0 C16 5.28 16 10.56 16 16 C10.72 16 5.44 16 0 16 C0 10.72 0 5.44 0 0 Z " fill="#000000" transform="translate(240,288)"/>
<path d="M0 0 C2.0625 1.5625 2.0625 1.5625 3 4 C3.17821261 6.85140177 2.92914963 9.292848 2 12 C-0.93837168 14.85194898 -2.53597436 15 -6.625 15 C-10 14 -10 14 -12 11.875 C-13.30782688 8.11499772 -13.06090617 5.81926223 -12 2 C-8.81688665 -2.07438508 -4.54417813 -1.38635943 0 0 Z " fill="#3E5A83" transform="translate(173,321)"/>
<path d="M0 0 C2.625 0.375 2.625 0.375 5 1 C5.625 3.375 5.625 3.375 6 6 C5.34 6.66 4.68 7.32 4 8 C1.375 7.625 1.375 7.625 -1 7 C-1.625 4.625 -1.625 4.625 -2 2 C-1.34 1.34 -0.68 0.68 0 0 Z " fill="#71B8D7" transform="translate(66,232)"/>
</svg>
